<svg id="Layer_1" data-name="Layer 1" xmlns="http://www.w3.org/2000/svg" viewBox="0 0 93 93"><defs><style>.cls-1{fill:#2a3132;stroke:#90afc5;stroke-miterlimit:10;stroke-width:3px;}.cls-2{fill:#90afc5;}</style></defs><title>icon</title><rect class="cls-1" x="1.5" y="1.5" width="90" height="90"/><path class="cls-2" d="M36.24,33.76v28H33L16.19,40.87V61.72h-4v-28h3.28L32.25,54.61V33.76Z" transform="translate(-3.5 -3.5)"/><path class="cls-2" d="M46.68,61.07a12.66,12.66,0,0,1-4.61-2.54l1.48-3.12a12.2,12.2,0,0,0,4.09,2.34,15.08,15.08,0,0,0,5.14.9A9.22,9.22,0,0,0,58,57.47a3.65,3.65,0,0,0,1.72-3.14A3.11,3.11,0,0,0,58.75,52a6.31,6.31,0,0,0-2.32-1.38c-.92-.32-2.22-.68-3.89-1.08A39.86,39.86,0,0,1,47.44,48a8.29,8.29,0,0,1-3.31-2.34,6.23,6.23,0,0,1-1.38-4.25,7.13,7.13,0,0,1,1.18-4,8.09,8.09,0,0,1,3.57-2.88,14.5,14.5,0,0,1,6-1.08,18.66,18.66,0,0,1,4.87.64,12.93,12.93,0,0,1,4.11,1.84l-1.32,3.19a14.39,14.39,0,0,0-3.75-1.69,13.88,13.88,0,0,0-3.91-.58,8.68,8.68,0,0,0-5.1,1.23,3.82,3.82,0,0,0-1.7,3.2,3.06,3.06,0,0,0,1,2.34A6.73,6.73,0,0,0,50,45a37.26,37.26,0,0,0,3.85,1.05,40.57,40.57,0,0,1,5.08,1.52,8.55,8.55,0,0,1,3.29,2.32,6.1,6.1,0,0,1,1.38,4.19,7.13,7.13,0,0,1-1.2,4A8.09,8.09,0,0,1,58.77,61a15.15,15.15,0,0,1-6,1A19.23,19.23,0,0,1,46.68,61.07Z" transform="translate(-3.5 -3.5)"/><path class="cls-2" d="M89.72,58.25v3.47H69.43v-28H89.16v3.47H73.43v8.59h14v3.4h-14v9Z" transform="translate(-3.5 -3.5)"/></svg>