<svg id="Layer_1" data-name="Layer 1" xmlns="http://www.w3.org/2000/svg" viewBox="0 0 87.4 84.19"><defs><style>.cls-1,.cls-2,.cls-3,.cls-4{fill:#fff;stroke-miterlimit:10;}.cls-1,.cls-3{stroke:#29abe2;}.cls-1{stroke-width:1.5px;}.cls-2{stroke:#f15a24;}.cls-2,.cls-3,.cls-4{stroke-width:0.25px;}.cls-4{stroke:#000;}</style></defs><title>Numerical Solution Of Equations Icon</title><path class="cls-1" d="M7.5,67.5c9.11,22.1,18.86,25.34,23,26,19.3,3.09,44.86-29.41,63-83" transform="translate(-6.81 -10.26)"/><line class="cls-2" x1="41.19" y1="0.74" x2="41.19" y2="83.74"/><line class="cls-2" x1="57.19" y1="0.74" x2="57.19" y2="83.74"/><line class="cls-3" x1="49.19" y1="0.74" x2="49.19" y2="83.74"/><line class="cls-4" x1="0.19" y1="70.51" x2="86.19" y2="70.51"/><path d="M29.93,36.55V57.77H27.45L14.71,41.94V57.77h-3V36.55h2.49L26.9,52.38V36.55Z" transform="translate(-6.81 -10.26)"/><path d="M37.86,57.27a9.5,9.5,0,0,1-3.5-1.92L35.48,53a9.13,9.13,0,0,0,3.11,1.77,11.27,11.27,0,0,0,3.89.69,7,7,0,0,0,3.94-.9,2.75,2.75,0,0,0,1.31-2.38A2.31,2.31,0,0,0,47,50.39a4.65,4.65,0,0,0-1.75-1c-.7-.24-1.69-.51-3-.82a28.66,28.66,0,0,1-3.86-1.15,6.36,6.36,0,0,1-2.52-1.77,4.74,4.74,0,0,1-1.05-3.23,5.44,5.44,0,0,1,.9-3.06,6.15,6.15,0,0,1,2.71-2.19A11.11,11.11,0,0,1,43,36.31a14.51,14.51,0,0,1,3.7.48,9.71,9.71,0,0,1,3.12,1.4l-1,2.42A11.1,11.1,0,0,0,46,39.32a10.74,10.74,0,0,0-3-.44,6.61,6.61,0,0,0-3.87.94,2.89,2.89,0,0,0-1.29,2.43A2.32,2.32,0,0,0,38.57,44a5,5,0,0,0,1.81,1.06,27.38,27.38,0,0,0,2.92.81A28,28,0,0,1,47.15,47a6.44,6.44,0,0,1,2.5,1.76A4.6,4.6,0,0,1,50.7,52,5.48,5.48,0,0,1,49.79,55,6.15,6.15,0,0,1,47,57.21a11.34,11.34,0,0,1-4.55.8A14.37,14.37,0,0,1,37.86,57.27Z" transform="translate(-6.81 -10.26)"/><path d="M57.27,56.89a7.74,7.74,0,0,1-3-2.92,8.82,8.82,0,0,1,0-8.46,7.51,7.51,0,0,1,3-2.91,8.81,8.81,0,0,1,4.31-1.05,8.68,8.68,0,0,1,4.29,1.05,7.55,7.55,0,0,1,3,2.91,8.82,8.82,0,0,1,0,8.46,7.79,7.79,0,0,1-3,2.92A8.58,8.58,0,0,1,61.58,58,8.71,8.71,0,0,1,57.27,56.89Zm7.08-2.2a5,5,0,0,0,1.93-2,6.59,6.59,0,0,0,0-5.91,5,5,0,0,0-1.93-2,5.91,5.91,0,0,0-5.54,0,5,5,0,0,0-1.94,2,6.42,6.42,0,0,0,0,5.91,5,5,0,0,0,1.94,2,5.69,5.69,0,0,0,5.54,0Z" transform="translate(-6.81 -10.26)"/><path d="M89.77,55.13v2.64H74.37V36.55h15v2.64H77.4V45.7H88v2.58H77.4v6.85Z" transform="translate(-6.81 -10.26)"/></svg>